<svg width="406" height="65" viewBox="0 0 406 65" fill="none" xmlns="http://www.w3.org/2000/svg">
<path d="M18.6785 30.3079C14.8535 31.8239 10.8425 32.9629 6.5465 33.4469V33.4479L27.9895 45.9979C33.3445 46.0309 38.2295 44.7949 42.9405 42.8849C39.3925 41.2189 35.9615 39.2869 32.5715 37.3799C28.0825 34.8519 23.5185 32.2849 18.6785 30.3079ZM56.6065 35.9209C60.6715 33.6329 64.7965 31.3109 69.1455 29.4069C64.7965 27.5039 60.6685 25.1799 56.6035 22.8909C52.7055 20.6979 48.8945 18.5579 44.9985 16.8119C41.1015 18.5579 37.2905 20.6979 33.3925 22.8909C29.3265 25.1799 25.1995 27.5019 20.8515 29.4059C25.1985 31.3099 29.3265 33.6329 33.3915 35.9209C37.2905 38.1159 41.1035 40.2569 45.0005 42.0039C48.8965 40.2569 52.7075 38.1169 56.6065 35.9209ZM83.4495 33.4479C79.1555 32.9639 75.1415 31.8239 71.3185 30.3079C66.4795 32.2859 61.9145 34.8519 57.4235 37.3789C54.0345 39.2859 50.6055 41.2169 47.0585 42.8829C51.7695 44.7929 56.6525 46.0289 62.0065 45.9969L83.4495 33.4479ZM85.9695 31.9729L89.8155 29.7219C89.8707 29.6897 89.9165 29.6437 89.9484 29.5883C89.9802 29.533 89.997 29.4702 89.997 29.4064C89.997 29.3425 89.9802 29.2797 89.9484 29.2244C89.9165 29.169 89.8707 29.123 89.8155 29.0909L85.9695 26.8409C81.6195 27.0649 77.5545 28.0169 73.6805 29.4069C77.5545 30.7959 81.6195 31.7479 85.9695 31.9729ZM57.4245 21.4329C61.9125 23.9599 66.4775 26.5279 71.3175 28.5049C75.1425 26.9899 79.1535 25.8499 83.4505 25.3659L62.0085 12.8149C56.6525 12.7869 51.7645 14.0249 47.0505 15.9369C50.5985 17.5999 54.0315 19.5239 57.4245 21.4329ZM4.0265 31.9729C8.3775 31.7479 12.4445 30.7959 16.3185 29.4069C12.4445 28.0169 8.3775 27.0649 4.0265 26.8409L0.180496 29.0909C0.12554 29.1232 0.0799775 29.1693 0.0483208 29.2246C0.0166641 29.28 1.14441e-05 29.3426 1.14441e-05 29.4064C1.14441e-05 29.4701 0.0166641 29.5328 0.0483208 29.5881C0.0799775 29.6434 0.12554 29.6895 0.180496 29.7219L4.0265 31.9729ZM59.3095 47.5759C54.2315 47.2009 49.5105 45.7609 44.9985 43.8099C40.4865 45.7599 35.7645 47.2009 30.6875 47.5759L44.5535 55.6919C44.6885 55.771 44.8421 55.8127 44.9985 55.8127C45.1549 55.8127 45.3085 55.771 45.4435 55.6919L59.3095 47.5759ZM18.6805 28.5049C23.5195 26.5279 28.0835 23.9619 32.5715 21.4349C35.9605 19.5279 39.3925 17.5999 42.9395 15.9329C38.2295 14.0239 33.3455 12.7879 27.9885 12.8169L6.5465 25.3659C10.8435 25.8489 14.8545 26.9899 18.6805 28.5049ZM44.9855 15.0069C49.4975 13.0539 54.2185 11.6069 59.2985 11.2309L45.4435 3.12085C45.3085 3.04175 45.1549 3.00005 44.9985 3.00005C44.8421 3.00005 44.6885 3.04175 44.5535 3.12085L30.6795 11.2409C35.7595 11.6239 40.4775 13.0629 44.9855 15.0069ZM0.379497 31.0979C0.341253 31.0755 0.297805 31.0637 0.253528 31.0635C0.20925 31.0633 0.165707 31.0748 0.127282 31.0968C0.0888571 31.1188 0.0569071 31.1506 0.0346494 31.1888C0.0123916 31.2271 0.000611911 31.2706 0.000496387 31.3149V36.8519C0.000496387 36.9419 0.0484964 37.0239 0.125496 37.0689L43.9895 62.7418C44.0277 62.7642 44.0712 62.776 44.1155 62.7762C44.1597 62.7764 44.2033 62.7649 44.2417 62.7429C44.2801 62.7209 44.3121 62.6891 44.3343 62.6509C44.3566 62.6126 44.3684 62.5691 44.3685 62.5249V56.9879C44.3688 56.9437 44.3573 56.9003 44.3354 56.862C44.3134 56.8237 44.2817 56.7919 44.2435 56.7699L0.379497 31.0979ZM89.6215 31.0979L45.7575 56.7699C45.7193 56.7919 45.6876 56.8237 45.6656 56.862C45.6437 56.9003 45.6322 56.9437 45.6325 56.9879V62.5249C45.6325 62.7179 45.8435 62.8388 46.0125 62.7418L69.1455 49.3879L89.8755 37.0689C89.9134 37.0466 89.9448 37.0149 89.9667 36.9769C89.9887 36.9389 90.0003 36.8958 90.0005 36.8519V31.3149C90.0004 31.2706 89.9886 31.2271 89.9663 31.1888C89.9441 31.1506 89.9121 31.1188 89.8737 31.0968C89.8353 31.0748 89.7917 31.0633 89.7475 31.0635C89.7032 31.0637 89.6597 31.0755 89.6215 31.0979Z" fill="url(#paint0_linear_113_281)"/>
<path d="M111.778 11.5703C112.234 11.5703 112.626 11.7253 112.954 12.0352C113.282 12.3633 113.446 12.7643 113.446 13.2383V29.5898H131.876V13.2383C131.876 12.7643 132.04 12.3633 132.368 12.0352C132.696 11.7253 133.088 11.5703 133.544 11.5703H133.626C134.082 11.5703 134.474 11.7253 134.802 12.0352C135.13 12.3633 135.294 12.7643 135.294 13.2383V49.332C135.294 49.7878 135.13 50.1797 134.802 50.5078C134.474 50.8359 134.082 51 133.626 51H133.544C133.088 51 132.696 50.8359 132.368 50.5078C132.04 50.1797 131.876 49.7878 131.876 49.332V32.9805H113.446V49.332C113.446 49.7878 113.282 50.1797 112.954 50.5078C112.626 50.8359 112.234 51 111.778 51H111.696C111.241 51 110.849 50.8359 110.52 50.5078C110.192 50.1797 110.028 49.7878 110.028 49.332V13.2383C110.028 12.7643 110.192 12.3633 110.52 12.0352C110.849 11.7253 111.241 11.5703 111.696 11.5703H111.778ZM154.305 22.7812C158.207 22.7812 161.533 24.1576 164.286 26.9102C167.039 29.6628 168.415 32.9896 168.415 36.8906V49.332C168.415 49.7878 168.251 50.1797 167.923 50.5078C167.595 50.8359 167.203 51 166.747 51H166.665C166.209 51 165.817 50.8359 165.489 50.5078C165.161 50.1797 164.997 49.7878 164.997 49.332V46.2422C161.424 49.4141 157.86 51 154.305 51C150.404 51 147.078 49.6237 144.325 46.8711C141.572 44.1185 140.196 40.7917 140.196 36.8906C140.196 32.9896 141.572 29.6628 144.325 26.9102C147.078 24.1576 150.404 22.7812 154.305 22.7812ZM154.305 26.1992C151.352 26.1992 148.828 27.2474 146.731 29.3438C144.653 31.4401 143.614 33.9557 143.614 36.8906C143.614 39.8438 144.653 42.3685 146.731 44.4648C148.828 46.543 151.352 47.582 154.305 47.582C157.259 47.582 159.774 46.543 161.852 44.4648C163.949 42.3685 164.997 39.8438 164.997 36.8906C164.997 33.9557 163.949 31.4401 161.852 29.3438C159.792 27.2474 157.277 26.1992 154.305 26.1992ZM166.235 62.2383C165.779 62.2383 165.387 62.0742 165.059 61.7461C164.731 61.418 164.567 61.026 164.567 60.5703V60.4883C164.567 60.0326 164.731 59.6406 165.059 59.3125C165.387 58.9844 165.779 58.8203 166.235 58.8203H167.821C169.771 58.8203 171.412 58.1367 172.743 56.7695C174.11 55.4388 174.803 53.7891 174.821 51.8203V24.4766C174.821 24.0026 174.976 23.6016 175.286 23.2734C175.614 22.9453 176.015 22.7812 176.489 22.7812H176.544C177.018 22.7812 177.419 22.9453 177.747 23.2734C178.057 23.6016 178.212 24.0026 178.212 24.4766V51.8203C178.175 54.737 177.163 57.1979 175.176 59.2031C173.171 61.2266 170.719 62.2383 167.821 62.2383H166.235ZM176.489 15.8906C175.869 15.8906 175.35 15.681 174.93 15.2617C174.511 14.8424 174.301 14.3229 174.301 13.7031C174.301 13.1016 174.511 12.5911 174.93 12.1719C175.35 11.7526 175.869 11.543 176.489 11.543C177.09 11.543 177.601 11.7526 178.02 12.1719C178.458 12.6094 178.676 13.1198 178.676 13.7031C178.676 14.3047 178.458 14.8242 178.02 15.2617C177.601 15.681 177.09 15.8906 176.489 15.8906ZM196.704 26.2539C193.75 26.2539 191.226 27.3021 189.129 29.3984C187.051 31.4948 186.012 34.0195 186.012 36.9727C186.012 37.5013 186.103 38.3854 186.286 39.625L205.563 30.9023C202.974 27.8034 200.021 26.2539 196.704 26.2539ZM209.528 31.0391C209.728 31.4583 209.747 31.8867 209.582 32.3242C209.418 32.7435 209.127 33.0534 208.707 33.2539C206.155 34.4023 202.801 35.9154 198.645 37.793C193.486 40.1263 189.822 41.776 187.653 42.7422C190.205 46.0234 193.222 47.6641 196.704 47.6641C199.019 47.6641 201.115 46.9805 202.993 45.6133C204.797 44.3008 206.064 42.5872 206.793 40.4727C207.067 39.707 207.614 39.3242 208.434 39.3242C209.017 39.3242 209.482 39.5612 209.829 40.0352C210.157 40.5091 210.221 41.0195 210.02 41.5664C209.054 44.3555 207.368 46.6159 204.961 48.3477C202.482 50.1159 199.73 51 196.704 51C192.803 51 189.476 49.6237 186.723 46.8711C183.971 44.1185 182.594 40.7917 182.594 36.8906C182.594 32.9896 183.971 29.6628 186.723 26.9102C189.476 24.1576 192.803 22.7812 196.704 22.7812C199.511 22.7812 202.081 23.5469 204.415 25.0781C206.693 26.5729 208.398 28.5599 209.528 31.0391ZM226.215 22.7812C226.689 22.7812 227.09 22.9453 227.418 23.2734C227.728 23.6016 227.883 24.0026 227.883 24.4766V24.5312C227.883 25.0052 227.728 25.3971 227.418 25.707C227.09 26.0352 226.689 26.1992 226.215 26.1992H224.657C222.724 26.1992 221.075 26.8828 219.707 28.25C218.358 29.6172 217.675 31.2669 217.657 33.1992V49.332C217.657 49.7878 217.492 50.1797 217.164 50.5078C216.836 50.8359 216.444 51 215.989 51H215.907C215.451 51 215.059 50.8359 214.731 50.5078C214.403 50.1797 214.239 49.7878 214.239 49.332V33.1992C214.275 30.3008 215.287 27.8398 217.274 25.8164C219.297 23.793 221.758 22.7812 224.657 22.7812H226.215Z" fill="black"/>
<path d="M246.383 29.5898H261.066C261.522 29.5898 261.914 29.7448 262.242 30.0547C262.57 30.3828 262.734 30.7839 262.734 31.2578V31.3125C262.734 31.7865 262.57 32.1875 262.242 32.5156C261.914 32.8255 261.522 32.9805 261.066 32.9805H246.383V42.6602C246.383 44.0091 246.866 45.1667 247.832 46.1328C248.798 47.099 249.956 47.582 251.305 47.582H261.066C261.522 47.582 261.914 47.7461 262.242 48.0742C262.57 48.4023 262.734 48.8034 262.734 49.2773V49.332C262.734 49.7878 262.57 50.1797 262.242 50.5078C261.914 50.8359 261.522 51 261.066 51H251.305C248.99 51 247.021 50.1888 245.398 48.5664C243.776 46.944 242.965 44.9753 242.965 42.6602V19.9102C242.965 17.5951 243.776 15.6263 245.398 14.0039C247.021 12.3815 248.99 11.5703 251.305 11.5703H261.066C261.522 11.5703 261.914 11.7344 262.242 12.0625C262.57 12.3906 262.734 12.7826 262.734 13.2383V13.293C262.734 13.7669 262.57 14.168 262.242 14.4961C261.914 14.8242 261.522 14.9883 261.066 14.9883H251.305C249.956 14.9883 248.798 15.4714 247.832 16.4375C246.866 17.4036 246.383 18.5612 246.383 19.9102V29.5898ZM291.152 49.332C291.152 49.7878 290.988 50.1797 290.66 50.5078C290.332 50.8359 289.94 51 289.484 51H289.402C288.946 51 288.555 50.8359 288.226 50.5078C287.898 50.1797 287.734 49.7878 287.734 49.332V41.0469C287.734 38.5495 286.85 36.4076 285.082 34.6211C283.295 32.8346 281.144 31.9414 278.629 31.9414C276.131 31.9414 273.989 32.8346 272.203 34.6211C270.435 36.4076 269.551 38.5495 269.551 41.0469V49.332C269.551 49.7878 269.387 50.1797 269.058 50.5078C268.73 50.8359 268.338 51 267.883 51H267.801C267.345 51 266.953 50.8359 266.625 50.5078C266.297 50.1797 266.133 49.7878 266.133 49.332V41.0469C266.133 36.7812 268.165 33.181 272.23 30.2461C268.165 27.3112 266.133 23.7109 266.133 19.4453V13.2383C266.133 12.7643 266.297 12.3633 266.625 12.0352C266.953 11.7253 267.345 11.5703 267.801 11.5703H267.883C268.338 11.5703 268.73 11.7253 269.058 12.0352C269.387 12.3633 269.551 12.7643 269.551 13.2383V19.4453C269.551 21.9427 270.435 24.0846 272.203 25.8711C273.989 27.6576 276.131 28.5508 278.629 28.5508C281.144 28.5508 283.295 27.6576 285.082 25.8711C286.85 24.0846 287.734 21.9427 287.734 19.4453V13.2383C287.734 12.7643 287.898 12.3633 288.226 12.0352C288.555 11.7253 288.946 11.5703 289.402 11.5703H289.484C289.94 11.5703 290.332 11.7253 290.66 12.0352C290.988 12.3633 291.152 12.7643 291.152 13.2383V19.4453C291.152 23.7109 289.12 27.3112 285.055 30.2461C289.12 33.181 291.152 36.7812 291.152 41.0469V49.332ZM309.918 47.5273C312.889 47.5273 315.405 46.4792 317.465 44.3828C319.561 42.2865 320.609 39.7708 320.609 36.8359C320.609 33.8828 319.561 31.3581 317.465 29.2617C315.386 27.1836 312.871 26.1445 309.918 26.1445C306.965 26.1445 304.44 27.1836 302.343 29.2617C300.265 31.3581 299.226 33.8828 299.226 36.8359C299.226 39.7708 300.265 42.2865 302.343 44.3828C304.44 46.4792 306.965 47.5273 309.918 47.5273ZM297.476 62.2383C297.021 62.2383 296.629 62.0742 296.3 61.7461C295.972 61.418 295.808 61.026 295.808 60.5703V36.8359C295.827 32.9531 297.212 29.6354 299.965 26.8828C302.699 24.1484 306.017 22.7812 309.918 22.7812C313.819 22.7812 317.146 24.1576 319.898 26.9102C322.651 29.6628 324.027 32.9896 324.027 36.8906C324.027 40.7917 322.651 44.1185 319.898 46.8711C317.146 49.6237 313.819 51 309.918 51C306.345 51 302.781 49.4141 299.226 46.2422V60.5703C299.226 61.026 299.062 61.418 298.734 61.7461C298.406 62.0742 298.014 62.2383 297.558 62.2383H297.476ZM341.125 26.2539C338.171 26.2539 335.647 27.3021 333.55 29.3984C331.472 31.4948 330.433 34.0195 330.433 36.9727C330.433 39.9076 331.472 42.4232 333.55 44.5195C335.647 46.6159 338.171 47.6641 341.125 47.6641C344.096 47.6641 346.612 46.6159 348.671 44.5195C350.768 42.4232 351.816 39.9076 351.816 36.9727C351.816 34.0195 350.768 31.4948 348.671 29.3984C346.612 27.3021 344.096 26.2539 341.125 26.2539ZM341.125 22.7812C345.026 22.7812 348.352 24.1576 351.105 26.9102C353.858 29.6628 355.234 32.9896 355.234 36.8906C355.234 40.7917 353.858 44.1185 351.105 46.8711C348.352 49.6237 345.026 51 341.125 51C337.223 51 333.897 49.6237 331.144 46.8711C328.391 44.1185 327.015 40.7917 327.015 36.8906C327.015 32.9896 328.391 29.6628 331.144 26.9102C333.897 24.1576 337.223 22.7812 341.125 22.7812ZM371.019 22.7812C371.493 22.7812 371.894 22.9453 372.222 23.2734C372.532 23.6016 372.687 24.0026 372.687 24.4766V24.5312C372.687 25.0052 372.532 25.3971 372.222 25.707C371.894 26.0352 371.493 26.1992 371.019 26.1992H369.46C367.528 26.1992 365.878 26.8828 364.511 28.25C363.162 29.6172 362.479 31.2669 362.46 33.1992V49.332C362.46 49.7878 362.296 50.1797 361.968 50.5078C361.64 50.8359 361.248 51 360.792 51H360.71C360.255 51 359.863 50.8359 359.535 50.5078C359.206 50.1797 359.042 49.7878 359.042 49.332V33.1992C359.079 30.3008 360.091 27.8398 362.077 25.8164C364.101 23.793 366.562 22.7812 369.46 22.7812H371.019ZM376.632 11.5703C377.088 11.5703 377.48 11.7253 377.808 12.0352C378.136 12.3633 378.3 12.7643 378.3 13.2383V22.7812H384.042C384.498 22.7812 384.89 22.9453 385.218 23.2734C385.546 23.6016 385.71 24.0026 385.71 24.4766V24.5312C385.71 24.987 385.546 25.3789 385.218 25.707C384.89 26.0352 384.498 26.1992 384.042 26.1992H378.3V44.0547C378.3 45.0208 378.646 45.8503 379.339 46.543C380.032 47.2357 380.87 47.582 381.855 47.582H384.042C384.498 47.582 384.89 47.7461 385.218 48.0742C385.546 48.4023 385.71 48.8034 385.71 49.2773V49.332C385.71 49.7878 385.546 50.1797 385.218 50.5078C384.89 50.8359 384.498 51 384.042 51H381.855C379.922 51 378.273 50.3255 376.905 48.9766C375.556 47.6094 374.882 45.9688 374.882 44.0547V13.2383C374.882 12.7643 375.046 12.3633 375.374 12.0352C375.702 11.7253 376.094 11.5703 376.55 11.5703H376.632ZM395.534 26.1992C394.295 26.1992 393.237 26.6367 392.362 27.5117C391.487 28.4049 391.05 29.4622 391.05 30.6836C391.05 32.4336 391.87 33.7461 393.511 34.6211C393.985 34.8581 395.616 35.3503 398.405 36.0977C400.319 36.6445 401.696 37.3281 402.534 38.1484C403.719 39.2604 404.312 40.9102 404.312 43.0977C404.312 45.2852 403.546 47.1536 402.015 48.7031C400.465 50.2344 398.597 51 396.409 51H389.273C388.817 51 388.425 50.8359 388.097 50.5078C387.769 50.1797 387.605 49.7878 387.605 49.332V49.2773C387.605 48.8034 387.769 48.4023 388.097 48.0742C388.425 47.7461 388.817 47.582 389.273 47.582H396.683C397.922 47.582 398.98 47.1445 399.855 46.2695C400.73 45.3945 401.167 44.3372 401.167 43.0977C401.167 41.4023 400.338 40.1536 398.679 39.3516C398.332 39.1875 396.71 38.6953 393.812 37.875C391.934 37.3099 390.558 36.6172 389.683 35.7969C388.498 34.612 387.905 32.9076 387.905 30.6836C387.905 28.4961 388.671 26.6367 390.202 25.1055C391.752 23.556 393.62 22.7812 395.808 22.7812H400.839C401.313 22.7812 401.714 22.9453 402.042 23.2734C402.37 23.6016 402.534 24.0026 402.534 24.4766V24.5312C402.534 24.987 402.37 25.3789 402.042 25.707C401.714 26.0352 401.313 26.1992 400.839 26.1992H395.534Z" fill="#000AF8"/>
<defs>
<linearGradient id="paint0_linear_113_281" x1="90" y1="31.5" x2="-4.07589e-06" y2="30" gradientUnits="userSpaceOnUse">
<stop stop-color="#7102FF"/>
<stop offset="0.0001" stop-color="#A967FE" stop-opacity="0.87"/>
<stop offset="1" stop-color="#000AF8" stop-opacity="0.65"/>
</linearGradient>
</defs>
</svg>
